<svg width="170" height="55" viewBox="0 0 170 55" fill="none" xmlns="http://www.w3.org/2000/svg">
<rect width="170" height="55" fill="#E5E5E5"/>
<rect width="170" height="55" fill="#A5CFFF"/>
<path d="M51.4225 19.2H53.8225V34.512L51.0385 36.12H44.0065L41.2225 34.512V19.2H43.6225V33.72H51.4225V19.2ZM65.5604 36.12H61.9364L60.2324 35.136V40.8H57.9044V23.88H59.6564L60.2324 24.864L61.9364 23.88H65.5604L68.3444 25.488V34.512L65.5604 36.12ZM60.2324 25.968V34.032H66.0164V25.968H60.2324ZM74.8178 28.44V33.84H81.9938V36H72.4178V19.2H81.9938V21.36H74.8178V26.28H80.5538V28.44H74.8178ZM85.9553 24L89.4833 33.792H89.5313L93.0833 24H95.3633L90.9233 36H88.1153L83.6753 24H85.9553ZM107.252 33.912V36H100.556L97.7716 34.392V25.488L100.556 23.88H104.468L107.252 25.488V30.816H100.1V33.912H107.252ZM100.1 25.968V28.728H104.924V25.968H100.1ZM117.78 26.088H113.412V36H111.084V24H112.836L113.412 24.984L115.116 24H117.78V26.088ZM121.516 40.8L123.604 35.448L118.972 24H121.3L124.708 32.544H124.756L128.14 24H130.468L123.796 40.8H121.516Z" fill="white"/>
</svg>
